<?xml version="1.0" encoding="UTF-8"?>
<svg id="Layer_2" data-name="Layer 2" xmlns="http://www.w3.org/2000/svg" xmlns:xlink="http://www.w3.org/1999/xlink" viewBox="0 0 440.93 290.47">
  <defs>
    <style>
      .cls-1 {
        fill: url(#linear-gradient);
      }

      .cls-2 {
        fill: #94d9ff;
        opacity: .2;
      }
    </style>
    <linearGradient id="linear-gradient" x1="0" y1="145.23" x2="440.93" y2="145.23" gradientUnits="userSpaceOnUse">
      <stop offset="0" stop-color="#43c6e7"/>
      <stop offset="1" stop-color="#62b07e"/>
    </linearGradient>
  </defs>
  <g id="Layer_1-2" data-name="Layer 1">
    <path class="cls-1" d="M440.93,215.56l-20.06,32.61-4.14,6.73-2.27,3.69c-12,19.51-36.92,31.88-64.24,31.88h-164.21c-15.84,0-30.83-3.94-43.22-10.83-12.4-6.9-22.18-16.74-27.61-28.58l-31.9-69.53-6.35-13.86L31.24,68.09l-3.54-7.71L0,0h65.81c1.46,0,2.92.06,4.36.17,2.59.19,5.13.55,7.6,1.08,14.74,3.11,26.9,11.86,32.04,23.71l12.12,27.97,2.97,6.87,36.55,84.39h0s4.6,10.63,4.6,10.63h0s21.27,49.1,21.27,49.1l73.74-170.26,3.78-8.71h0c6.46-14.92,24.12-24.94,43.96-24.94h63.22l-.44.96-27.55,60.06-3.07,6.69-67.83,147.85h167.81Z"/>
    <path class="cls-2" d="M70.17.17c-17,18.87-31.21,39.06-42.46,60.22l3.54,7.71C43.13,44.47,58.71,22.03,77.76,1.24c-2.47-.53-5.01-.88-7.6-1.08Z"/>
    <path class="cls-2" d="M121.92,52.92c-26.37,34.57-41.84,73.72-45,114.74l6.35,13.86c.42-43.44,14.87-85.11,41.62-121.74l-2.97-6.87Z"/>
    <path class="cls-2" d="M337.2,0c-26.07,5.1-50.47,13.62-72.37,24.93h0s-3.78,8.72-3.78,8.72C292.91,15.74,330.7,4.09,371.57.96l.44-.96h-34.81ZM166.04,154.82h0s-4.6-10.63-4.6-10.63c-3.39,12.68-5.17,25.82-5.17,39.29,0,39.68,15.47,76.56,41.89,106.99h8.5c-27.32-30.13-43.43-67.09-43.43-106.99,0-9.74.96-19.32,2.82-28.66Z"/>
    <path class="cls-2" d="M340.95,67.71l3.07-6.69c-64.94,16.76-112.02,65.32-112.02,122.46,0,44.54,28.61,83.88,72,106.99h13.18c-46.7-21.24-78.23-61.24-78.23-106.99,0-53.14,42.55-98.53,101.99-115.77Z"/>
    <path class="cls-2" d="M393.91,251.63c-32.69,0-61.17-14.62-75.62-36.07h-7.8c15.02,24.6,46.78,41.6,83.42,41.6,7.87,0,15.53-.78,22.82-2.26l4.14-6.73c-8.48,2.24-17.54,3.46-26.96,3.46Z"/>
  </g>
</svg>