<?xml version="1.0" encoding="UTF-8"?>
<svg id="Layer_2" data-name="Layer 2" xmlns="http://www.w3.org/2000/svg" xmlns:xlink="http://www.w3.org/1999/xlink" viewBox="0 0 380.24 315.1">
  <defs>
    <style>
      .cls-1 {
        fill: url(#linear-gradient);
      }

      .cls-2 {
        fill: #94d9ff;
        opacity: .2;
      }
    </style>
    <linearGradient id="linear-gradient" x1="0" y1="157.55" x2="380.24" y2="157.55" gradientUnits="userSpaceOnUse">
      <stop offset="0" stop-color="#43c6e7"/>
      <stop offset="1" stop-color="#62b07e"/>
    </linearGradient>
  </defs>
  <g id="Layer_1-2" data-name="Layer 1">
    <path class="cls-1" d="M380.24,233.84l-17.3,35.38-3.57,7.3-1.96,4c-10.35,21.16-31.84,34.58-55.4,34.58h-141.61c-13.66,0-26.59-4.27-37.27-11.75-10.69-7.48-19.13-18.16-23.81-31l-27.51-75.43-5.48-15.04L26.94,73.87l-3.05-8.36L0,0h56.75c1.26,0,2.52.06,3.76.18,2.23.21,4.42.6,6.55,1.17,12.71,3.37,23.2,12.87,27.63,25.72l10.45,30.34,2.56,7.45,31.52,91.55h0s3.97,11.53,3.97,11.53h0s18.34,53.26,18.34,53.26l63.59-184.7,3.26-9.45h0c5.57-16.19,20.8-27.05,37.91-27.05h54.52l-.38,1.04-23.76,65.15-2.65,7.26-58.49,160.39h144.71Z"/>
    <path class="cls-2" d="M60.51.18c-14.66,20.47-26.91,42.37-36.62,65.33l3.05,8.36C37.19,48.24,50.63,23.9,67.06,1.35c-2.13-.57-4.32-.96-6.55-1.17Z"/>
    <path class="cls-2" d="M105.14,57.41c-22.74,37.5-36.08,79.97-38.81,124.47l5.48,15.04c.36-47.12,12.82-92.33,35.89-132.06l-2.56-7.45Z"/>
    <path class="cls-2" d="M290.79,0c-22.48,5.53-43.52,14.77-62.41,27.04h0s-3.26,9.46-3.26,9.46c27.47-19.42,60.06-32.06,95.31-35.46l.38-1.04h-30.02ZM143.19,167.95h0s-3.97-11.53-3.97-11.53c-2.92,13.75-4.46,28.01-4.46,42.62,0,43.05,13.34,83.05,36.12,116.06h7.33c-23.56-32.68-37.45-72.78-37.45-116.06,0-10.57.83-20.96,2.43-31.09Z"/>
    <path class="cls-2" d="M294.02,73.45l2.65-7.26c-56,18.18-96.6,70.86-96.6,132.85,0,48.32,24.67,90.99,62.09,116.06h11.37c-40.27-23.04-67.46-66.43-67.46-116.06,0-57.65,36.69-106.89,87.95-125.59Z"/>
    <path class="cls-2" d="M339.69,272.97c-28.19,0-52.75-15.86-65.21-39.13h-6.73c12.95,26.69,40.34,45.13,71.94,45.13,6.79,0,13.39-.85,19.68-2.45l3.57-7.3c-7.31,2.43-15.13,3.75-23.25,3.75Z"/>
  </g>
</svg>