<?xml version="1.0" encoding="UTF-8"?>
<!--Generator: Apple Native CoreSVG 326-->
<!DOCTYPE svg
PUBLIC "-//W3C//DTD SVG 1.1//EN"
       "http://www.w3.org/Graphics/SVG/1.1/DTD/svg11.dtd">
<svg version="1.1" xmlns="http://www.w3.org/2000/svg" xmlns:xlink="http://www.w3.org/1999/xlink" viewBox="0 0 4.07031 3.25586">
 <g>
  <rect height="3.25586" opacity="0" width="4.07031" x="0" y="0"/>
  <path d="M1.45312 2.97266L1.45312 2.08789C1.45312 2.01367 1.50391 1.96484 1.57812 1.96484L2.15234 1.96484C2.22852 1.96484 2.27539 2.01367 2.27539 2.08789L2.27539 2.97266ZM0.501953 2.90039C0.501953 3.12305 0.636719 3.25391 0.863281 3.25391L2.86719 3.25391C3.09375 3.25391 3.22852 3.12305 3.22852 2.90039L3.22852 1.74609L1.95508 0.679688C1.90039 0.632812 1.82812 0.634766 1.77539 0.679688L0.501953 1.74609ZM0.152344 1.68555C0.201172 1.68555 0.242188 1.6582 0.277344 1.62891L1.81445 0.337891C1.83008 0.324219 1.84961 0.318359 1.86523 0.318359C1.88086 0.318359 1.89844 0.324219 1.91406 0.337891L3.45312 1.62891C3.48828 1.6582 3.5293 1.68555 3.57812 1.68555C3.67383 1.68555 3.73047 1.61719 3.73047 1.54492C3.73047 1.50586 3.71289 1.46289 3.67578 1.43164L2.06055 0.0761719C1.99805 0.0253906 1.93164 0 1.86523 0C1.79883 0 1.73047 0.0253906 1.66992 0.0761719L0.0546875 1.43164C0.0175781 1.46289 0 1.50586 0 1.54492C0 1.61719 0.0566406 1.68555 0.152344 1.68555ZM2.84375 0.804688L3.26562 1.16016L3.26562 0.453125C3.26562 0.378906 3.2168 0.332031 3.14258 0.332031L2.9668 0.332031C2.89453 0.332031 2.84375 0.378906 2.84375 0.453125Z" fill="#41826e"/>
 </g>
</svg>
