<?xml version="1.0" encoding="UTF-8"?>
<svg id="Layer_1" xmlns="http://www.w3.org/2000/svg" version="1.1" viewBox="0 0 24 24">
  <!-- Generator: Adobe Illustrator 29.0.0, SVG Export Plug-In . SVG Version: 2.1.0 Build 186)  -->
  <defs>
    <style>
      .st0 {
        fill: #fff;
      }
    </style>
  </defs>
  <path class="st0" d="M14,7.7c-.6-.6-1.2-.8-2-.8s-1.5.3-2,.8c-.6.6-.9,1.2-.9,2s.3,1.5.9,2c.6.6,1.2.9,2,.9s1.5-.3,2-.9c.6-.6.8-1.2.8-2s-.3-1.5-.8-2ZM13,10.7c-.3.3-.6.4-1,.4s-.7-.1-1-.4c-.3-.3-.4-.6-.4-1s.1-.7.4-1c.3-.3.6-.4,1-.4s.7.1,1,.4c.3.3.4.6.4,1s-.1.7-.4,1Z"/>
  <path class="st0" d="M17.8,16.3v.8h-1.4v-.8c0-.1,0-.3-.1-.4,0-.1-.2-.2-.3-.3-.6-.3-1.3-.6-2-.7-.7-.2-1.3-.2-2-.2s-1.3,0-2,.2c-.7.2-1.3.4-2,.7-.1,0-.2.1-.3.3,0,.1-.1.2-.1.4v.8h-1.4v-.8c0-.4.1-.8.3-1.1.2-.3.5-.6.8-.8.7-.4,1.5-.6,2.3-.8s1.6-.3,2.3-.3,1.6,0,2.3.3,1.5.5,2.3.8c.3.2.6.4.8.8.2.3.3.7.3,1.1Z"/>
</svg>